<?xml version="1.0" encoding="UTF-8" standalone="no"?>
<!-- Created with Inkscape (http://www.inkscape.org/) -->

<svg
   xmlns:dc="http://purl.org/dc/elements/1.1/"
   xmlns:cc="http://creativecommons.org/ns#"
   xmlns:rdf="http://www.w3.org/1999/02/22-rdf-syntax-ns#"
   xmlns:svg="http://www.w3.org/2000/svg"
   xmlns="http://www.w3.org/2000/svg"
   xmlns:sodipodi="http://sodipodi.sourceforge.net/DTD/sodipodi-0.dtd"
   xmlns:inkscape="http://www.inkscape.org/namespaces/inkscape"
   width="400"
   height="400"
   viewBox="0 0 105.83333 105.83334"
   version="1.1"
   id="svg8"
   inkscape:version="0.92.2 2405546, 2018-03-11"
   sodipodi:docname="trees.svg">
  <defs
     id="defs2" />
  <sodipodi:namedview
     id="base"
     pagecolor="#ffffff"
     bordercolor="#666666"
     borderopacity="1.0"
     inkscape:pageopacity="0.0"
     inkscape:pageshadow="2"
     inkscape:zoom="0.98994949"
     inkscape:cx="312.29612"
     inkscape:cy="252.79589"
     inkscape:document-units="mm"
     inkscape:current-layer="g5100"
     showgrid="false"
     units="px"
     inkscape:window-width="1366"
     inkscape:window-height="704"
     inkscape:window-x="0"
     inkscape:window-y="27"
     inkscape:window-maximized="1" />
  <metadata
     id="metadata5">
    <rdf:RDF>
      <cc:Work
         rdf:about="">
        <dc:format>image/svg+xml</dc:format>
        <dc:type
           rdf:resource="http://purl.org/dc/dcmitype/StillImage" />
        <dc:title></dc:title>
      </cc:Work>
    </rdf:RDF>
  </metadata>
  <g
     inkscape:label="Layer 1"
     inkscape:groupmode="layer"
     id="layer1"
     transform="translate(0,-191.16665)">
    <g
       id="g5100">
      <path
         sodipodi:nodetypes="ccccsccc"
         inkscape:connector-curvature="0"
         id="path5072"
         d="m -3.0238094,223.10564 c 9.6383926,0.18899 8.315476,-10.39435 8.315476,-10.39435 0,0 5.1026784,5.48066 11.7172614,1.7009 6.614584,-3.77977 3.779762,-12.85119 3.779762,-12.85119 0,0 7.357861,0.28795 10.205357,-2.64584 6.236606,-6.4256 2.267858,-10.20536 2.267858,-10.20536 l -37.0416668,-0.37797 z"
         style="fill:#0f8b6f;fill-rule:evenodd;stroke:#ffffff;stroke-width:0.26458332px;stroke-linecap:butt;stroke-linejoin:miter;stroke-opacity:1;fill-opacity:1" />
      <path
         sodipodi:nodetypes="ccscscscscsc"
         inkscape:connector-curvature="0"
         id="path5074"
         d="m 84.666666,215.54611 c 4.913691,-6.99256 10.016368,-1.32292 10.016368,-1.32292 0,0 8.126486,-3.40178 13.229166,3.2128 5.10268,6.61458 -0.37797,12.47322 -0.37797,12.47322 0,0 8.31547,5.66964 2.83482,13.22916 -5.48066,7.55953 -9.07143,2.26786 -9.07143,2.26786 0,0 -3.212799,3.96875 -8.504466,3.96875 -5.291666,0 -8.126489,-6.42559 -8.126489,-6.42559 0,0 -7.782585,2.17801 -11.150296,-2.07887 -4.504819,-5.69422 0.226786,-10.96131 0.226786,-10.96131 0,0 -9.099136,-6.39869 -2.683631,-14.17411 4.425823,-5.36398 13.607142,-0.18899 13.607142,-0.18899 z"
         style="fill:#0f8b6f;fill-rule:evenodd;stroke:#ffffff;stroke-width:0.26458332px;stroke-linecap:butt;stroke-linejoin:miter;stroke-opacity:1;fill-opacity:1" />
      <path
         sodipodi:nodetypes="cscscscscsc"
         inkscape:connector-curvature="0"
         id="path5076"
         d="m 20.977679,263.73808 c 0,0 5.102678,-6.80357 11.717261,1.13393 6.614584,7.9375 -0.566965,12.85119 -0.566965,12.85119 0,0 6.99256,7.37053 3.590775,12.47321 -4.34388,6.51582 -13.040179,3.2128 -13.040179,3.2128 0,0 -6.558524,7.69749 -13.6071429,4.7247 C 1.083301,294.76488 4.346726,285.09373 4.346726,285.09373 c 0,0 -6.545313,-0.38477 -6.8035712,-5.29167 -0.3779763,-7.18154 7.1815475,-5.85863 7.1815475,-5.85863 0,0 -4.8068755,-5.0267 -0.5669642,-10.77232 8.6001289,-11.65426 16.8199409,0.56697 16.8199409,0.56697 z"
         style="fill:#0f8b6f;fill-rule:evenodd;stroke:#ffffff;stroke-width:0.26458332px;stroke-linecap:butt;stroke-linejoin:miter;stroke-opacity:1;fill-opacity:1" />
      <path
         sodipodi:nodetypes="cscccscsccc"
         inkscape:connector-curvature="0"
         id="path5078"
         d="m 36.096725,235.20088 c 0,0 1.511905,-3.77976 5.10268,-3.96875 3.590774,-0.18899 5.480653,6.04761 5.480653,6.04761 0,0 8.693452,0.94494 7.181549,5.66965 -1.511906,4.7247 -7.748512,4.91369 -7.748512,4.91369 0,0 2.456845,5.29166 -1.700894,6.61458 -4.157736,1.32292 -5.102677,-2.45684 -5.102677,-2.45684 0,0 -7.9375,2.26785 -8.126489,-2.64584 -0.188987,-4.91369 1.322916,-4.53571 1.322916,-4.53571 0,0 -6.047617,-3.2128 -3.401783,-7.9375 2.645833,-4.72471 6.992557,-1.70089 6.992557,-1.70089 z"
         style="fill:#0f8b6f;fill-rule:evenodd;stroke:#ffffff;stroke-width:0.26458332px;stroke-linecap:butt;stroke-linejoin:miter;stroke-opacity:1;fill-opacity:1" />
      <path
         inkscape:connector-curvature="0"
         id="path5078-3"
         d="m 86.307585,283.59578 c 0,0 -4.24383,-2.21001 -2.254702,-5.20546 1.989129,-2.99546 7.06521,-0.63819 7.06521,-0.63819 0,0 7.142137,-8.34934 10.033857,-4.31863 2.89171,4.03072 -1.957844,9.60996 -1.957844,9.60996 0,0 6.996044,0.72287 5.579244,4.84956 -1.41681,4.12669 -5.014689,2.63179 -5.014689,2.63179 0,0 -2.91172,7.72456 -6.969249,4.9467 -4.057527,-2.77787 -2.142026,-5.35719 -2.142026,-5.35719 0,0 -5.11396,5.61829 -7.329612,0.67723 -2.21566,-4.94107 2.989811,-7.19577 2.989811,-7.19577 z"
         style="fill:#0f8b6f;fill-rule:evenodd;stroke:#ffffff;stroke-width:0.26458332px;stroke-linecap:butt;stroke-linejoin:miter;stroke-opacity:1;fill-opacity:1" />
      <path
         sodipodi:nodetypes="cscccscsccc"
         inkscape:connector-curvature="0"
         id="path5078-6"
         d="m 78.9744,206.9793 c 0,0 -2.171324,-3.44352 -0.215463,-6.4608 1.955861,-3.01728 8.113526,-0.88421 8.113526,-0.88421 0,0 5.870387,-6.48133 8.806533,-2.48286 2.936136,3.99847 -0.573594,9.15723 -0.573594,9.15723 0,0 5.725828,1.11922 4.354771,5.26134 -1.371055,4.14211 -4.985259,2.68711 -4.985259,2.68711 0,0 -2.826066,7.75631 -6.914085,5.02352 -4.088017,-2.7328 -2.894163,-3.73452 -2.894163,-3.73452 0,0 -6.152069,3.00796 -8.422261,-1.90828 -2.2702,-4.91625 2.729995,-6.65853 2.729995,-6.65853 z"
         style="fill:#0f8b6f;fill-opacity:1;fill-rule:evenodd;stroke:#ffffff;stroke-width:0.26458332px;stroke-linecap:butt;stroke-linejoin:miter;stroke-opacity:1" />
      <path
         inkscape:connector-curvature="0"
         id="path5078-3-7"
         d="m 15.960736,251.22318 c 0,0 -4.24383,-2.21001 -2.254702,-5.20546 1.989129,-2.99546 7.06521,-0.63819 7.06521,-0.63819 0,0 7.142134,-8.34934 10.033854,-4.31863 2.89171,4.03072 -1.95784,9.60996 -1.95784,9.60996 0,0 6.99604,0.72287 5.57924,4.84956 -1.41681,4.12669 -5.01469,2.63179 -5.01469,2.63179 0,0 -2.911716,7.72456 -6.969245,4.9467 -4.057527,-2.77787 -2.142026,-5.35719 -2.142026,-5.35719 0,0 -5.11396,5.61829 -7.329612,0.67723 -2.21566,-4.94107 2.989811,-7.19577 2.989811,-7.19577 z"
         style="fill:#0f8b6f;fill-opacity:1;fill-rule:evenodd;stroke:#ffffff;stroke-width:0.26458332px;stroke-linecap:butt;stroke-linejoin:miter;stroke-opacity:1" />
      <path
         inkscape:connector-curvature="0"
         id="path5078-3-5"
         d="m 78.115414,280.53726 c 0,0 0.630306,-4.7431 4.124529,-3.89471 3.494229,0.84838 3.009308,6.42406 3.009308,6.42406 0,0 10.284453,3.86672 7.481491,7.95965 -2.802975,4.09292 -9.701564,1.4367 -9.701564,1.4367 0,0 1.706246,6.82318 -2.656231,6.89859 -4.362481,0.0754 -4.184137,-3.8166 -4.184137,-3.8166 0,0 -8.254474,-0.10295 -7.026825,-4.86456 1.227661,-4.76161 4.30559,-3.84053 4.30559,-3.84053 0,0 -7.025468,-2.89146 -3.136173,-6.6593 3.889301,-3.76784 7.784012,0.3567 7.784012,0.3567 z"
         style="fill:#0f8b6f;fill-opacity:1;fill-rule:evenodd;stroke:#ffffff;stroke-width:0.26458332px;stroke-linecap:butt;stroke-linejoin:miter;stroke-opacity:1" />
      <path
         sodipodi:nodetypes="ccscscscscsc"
         inkscape:connector-curvature="0"
         id="path5074-3"
         d="m 44.676419,255.63765 c 4.91369,-6.99256 10.016368,-1.32292 10.016368,-1.32292 0,0 8.126485,-3.40178 13.229166,3.2128 5.10268,6.61458 -0.37797,12.47322 -0.37797,12.47322 0,0 8.31547,5.66964 2.83482,13.22916 -5.48066,7.55953 -9.071431,2.26786 -9.071431,2.26786 0,0 -3.212799,3.96875 -8.504465,3.96875 -5.291666,0 -8.126489,-6.42559 -8.126489,-6.42559 0,0 -7.782585,2.17801 -11.150296,-2.07887 -4.504819,-5.69422 0.226786,-10.96131 0.226786,-10.96131 0,0 -9.099136,-6.39869 -2.683631,-14.17411 4.425823,-5.36398 13.607142,-0.18899 13.607142,-0.18899 z"
         style="fill:#0f8b6f;fill-opacity:1;fill-rule:evenodd;stroke:#ffffff;stroke-width:0.26458332px;stroke-linecap:butt;stroke-linejoin:miter;stroke-opacity:1" />
      <path
         inkscape:connector-curvature="0"
         id="path5078-3-5-5"
         d="m 31.73134,217.86301 c 0,0 0.630306,-4.7431 4.124529,-3.89471 3.494229,0.84838 3.009308,6.42406 3.009308,6.42406 0,0 10.284454,3.86672 7.481491,7.95965 -2.802975,4.09292 -9.701564,1.4367 -9.701564,1.4367 0,0 1.706246,6.82318 -2.656231,6.89859 -4.362481,0.0754 -4.184137,-3.8166 -4.184137,-3.8166 0,0 -8.254474,-0.10295 -7.026825,-4.86456 1.227661,-4.76161 4.30559,-3.84053 4.30559,-3.84053 0,0 -7.025468,-2.89146 -3.136173,-6.6593 3.889301,-3.76784 7.784012,0.3567 7.784012,0.3567 z"
         style="fill:#0f8b6f;fill-opacity:1;fill-rule:evenodd;stroke:#ffffff;stroke-width:0.26458332px;stroke-linecap:butt;stroke-linejoin:miter;stroke-opacity:1" />
    </g>
  </g>
</svg>
