<?xml version="1.0" encoding="UTF-8" standalone="no"?>
<!-- Created with Inkscape (http://www.inkscape.org/) -->

<svg
   xmlns:dc="http://purl.org/dc/elements/1.1/"
   xmlns:cc="http://creativecommons.org/ns#"
   xmlns:rdf="http://www.w3.org/1999/02/22-rdf-syntax-ns#"
   xmlns:svg="http://www.w3.org/2000/svg"
   xmlns="http://www.w3.org/2000/svg"
   xmlns:sodipodi="http://sodipodi.sourceforge.net/DTD/sodipodi-0.dtd"
   xmlns:inkscape="http://www.inkscape.org/namespaces/inkscape"
   width="700"
   height="250"
   viewBox="0 0 185.20834 66.145833"
   version="1.1"
   id="svg5204"
   inkscape:version="0.92.2 2405546, 2018-03-11"
   sodipodi:docname="trees_long.svg">
  <defs
     id="defs5198" />
  <sodipodi:namedview
     id="base"
     pagecolor="#ffffff"
     bordercolor="#666666"
     borderopacity="1.0"
     inkscape:pageopacity="0.0"
     inkscape:pageshadow="2"
     inkscape:zoom="0.7"
     inkscape:cx="690.20995"
     inkscape:cy="96.311996"
     inkscape:document-units="mm"
     inkscape:current-layer="layer1"
     showgrid="false"
     units="px"
     inkscape:window-width="1366"
     inkscape:window-height="704"
     inkscape:window-x="0"
     inkscape:window-y="27"
     inkscape:window-maximized="1" />
  <metadata
     id="metadata5201">
    <rdf:RDF>
      <cc:Work
         rdf:about="">
        <dc:format>image/svg+xml</dc:format>
        <dc:type
           rdf:resource="http://purl.org/dc/dcmitype/StillImage" />
        <dc:title></dc:title>
      </cc:Work>
    </rdf:RDF>
  </metadata>
  <g
     inkscape:label="Layer 1"
     inkscape:groupmode="layer"
     id="layer1"
     transform="translate(0,-230.85417)">
    <rect
       style="opacity:0.92699998;fill:#ffffff;fill-opacity:0.39351855;stroke:#ffffff;stroke-width:0.26458332;stroke-opacity:1"
       id="rect5749"
       width="186.72025"
       height="68.791664"
       x="-0.37797621"
       y="229.72025"
       ry="1.2235074" />
    <path
       sodipodi:nodetypes="ccccsccc"
       inkscape:connector-curvature="0"
       id="path5072"
       d="m 0.37797379,264.49406 c 9.63839021,0.18899 8.31548001,-10.39435 8.31548001,-10.39435 0,0 5.1026802,5.48066 11.7172602,1.7009 6.61458,-3.77977 3.77976,-12.85119 3.77976,-12.85119 0,0 7.35786,0.28795 10.20536,-2.64584 6.23661,-6.4256 2.26786,-10.20536 2.26786,-10.20536 l -37.04167021,-0.37797 z"
       style="fill:#0f8b6f;fill-opacity:1;fill-rule:evenodd;stroke:#ffffff;stroke-width:0.26458332px;stroke-linecap:butt;stroke-linejoin:miter;stroke-opacity:1" />
    <path
       sodipodi:nodetypes="ccscscscscsc"
       inkscape:connector-curvature="0"
       id="path5074"
       d="m 157.06324,268.32161 c 4.91369,-6.99256 10.01637,-1.32292 10.01637,-1.32292 0,0 8.12648,-3.40178 13.22916,3.2128 5.10268,6.61458 -0.37797,12.47322 -0.37797,12.47322 0,0 8.31547,5.66964 2.83482,13.22916 -5.48066,7.55953 -9.07143,2.26786 -9.07143,2.26786 0,0 -3.2128,3.96875 -8.50446,3.96875 -5.29167,0 -8.12649,-6.42559 -8.12649,-6.42559 0,0 -7.78259,2.17801 -11.1503,-2.07887 -4.50482,-5.69422 0.22679,-10.96131 0.22679,-10.96131 0,0 -9.09914,-6.39869 -2.68363,-14.17411 4.42582,-5.36398 13.60714,-0.18899 13.60714,-0.18899 z"
       style="fill:#0f8b6f;fill-opacity:1;fill-rule:evenodd;stroke:#ffffff;stroke-width:0.26458332px;stroke-linecap:butt;stroke-linejoin:miter;stroke-opacity:1" />
    <path
       sodipodi:nodetypes="cscscscscsc"
       inkscape:connector-curvature="0"
       id="path5076"
       d="m 30.252226,274.18025 c 0,0 5.10268,-6.80357 11.71726,1.13393 6.61459,7.9375 -0.56696,12.85119 -0.56696,12.85119 0,0 6.99256,7.37053 3.59077,12.47321 -4.34388,6.51582 -13.04018,3.2128 -13.04018,3.2128 0,0 -6.55852,7.69749 -13.60714,4.7247 -7.98813,-3.36903 -4.7247,-13.04018 -4.7247,-13.04018 0,0 -6.5453199,-0.38477 -6.8035699,-5.29167 -0.37798,-7.18154 7.1815399,-5.85863 7.1815399,-5.85863 0,0 -4.8068699,-5.0267 -0.56696,-10.77232 8.60013,-11.65426 16.81994,0.56697 16.81994,0.56697 z"
       style="fill:#0f8b6f;fill-opacity:1;fill-rule:evenodd;stroke:#ffffff;stroke-width:0.26458332px;stroke-linecap:butt;stroke-linejoin:miter;stroke-opacity:1" />
    <path
       sodipodi:nodetypes="cscccscsccc"
       inkscape:connector-curvature="0"
       id="path5078"
       d="m 127.39211,278.90496 c 0,0 1.5119,-3.77976 5.10268,-3.96875 3.59077,-0.18899 5.48065,6.04761 5.48065,6.04761 0,0 8.69345,0.94494 7.18155,5.66965 -1.51191,4.7247 -7.74851,4.91369 -7.74851,4.91369 0,0 2.45684,5.29166 -1.7009,6.61458 -4.15773,1.32292 -5.10267,-2.45684 -5.10267,-2.45684 0,0 -7.9375,2.26785 -8.12649,-2.64584 -0.18899,-4.91369 1.32291,-4.53571 1.32291,-4.53571 0,0 -6.04761,-3.2128 -3.40178,-7.9375 2.64583,-4.72471 6.99256,-1.70089 6.99256,-1.70089 z"
       style="fill:#0f8b6f;fill-opacity:1;fill-rule:evenodd;stroke:#ffffff;stroke-width:0.26458332px;stroke-linecap:butt;stroke-linejoin:miter;stroke-opacity:1" />
    <path
       inkscape:connector-curvature="0"
       id="path5078-3"
       d="m 110.91481,289.09567 c 0,0 -4.24383,-2.21001 -2.2547,-5.20546 1.98912,-2.99546 7.0652,-0.63819 7.0652,-0.63819 0,0 7.14214,-8.34934 10.03386,-4.31863 2.89171,4.03072 -1.95784,9.60996 -1.95784,9.60996 0,0 6.99604,0.72287 5.57924,4.84956 -1.41681,4.12669 -5.01469,2.63179 -5.01469,2.63179 0,0 -2.91172,7.72456 -6.96925,4.9467 -4.05752,-2.77787 -2.14202,-5.35719 -2.14202,-5.35719 0,0 -5.11396,5.61829 -7.32961,0.67723 -2.21566,-4.94107 2.98981,-7.19577 2.98981,-7.19577 z"
       style="fill:#0f8b6f;fill-opacity:1;fill-rule:evenodd;stroke:#ffffff;stroke-width:0.26458332px;stroke-linecap:butt;stroke-linejoin:miter;stroke-opacity:1" />
    <path
       sodipodi:nodetypes="cscccscsccc"
       inkscape:connector-curvature="0"
       id="path5078-6"
       d="m 24.559956,265.61344 c 0,0 -2.17132,-3.44352 -0.21546,-6.4608 1.95586,-3.01728 8.11353,-0.88421 8.11353,-0.88421 0,0 5.87038,-6.48133 8.80653,-2.48286 2.93613,3.99847 -0.57359,9.15723 -0.57359,9.15723 0,0 5.72582,1.11922 4.35476,5.26134 -1.37105,4.14211 -4.98525,2.68711 -4.98525,2.68711 0,0 -2.82607,7.75631 -6.91409,5.02352 -4.08802,-2.7328 -2.89416,-3.73452 -2.89416,-3.73452 0,0 -6.15207,3.00796 -8.42226,-1.90828 -2.2702,-4.91625 2.72999,-6.65853 2.72999,-6.65853 z"
       style="fill:#0f8b6f;fill-opacity:1;fill-rule:evenodd;stroke:#ffffff;stroke-width:0.26458332px;stroke-linecap:butt;stroke-linejoin:miter;stroke-opacity:1" />
    <path
       inkscape:connector-curvature="0"
       id="path5078-3-7"
       d="m 93.174683,265.49788 c 0,0 -4.24383,-2.21001 -2.2547,-5.20546 1.98912,-2.99546 7.06521,-0.63819 7.06521,-0.63819 0,0 7.142127,-8.34934 10.033847,-4.31863 2.89171,4.03072 -1.95784,9.60996 -1.95784,9.60996 0,0 6.99604,0.72287 5.57924,4.84956 -1.41681,4.12669 -5.01469,2.63179 -5.01469,2.63179 0,0 -2.91172,7.72456 -6.969247,4.9467 -4.05752,-2.77787 -2.14202,-5.35719 -2.14202,-5.35719 0,0 -5.11396,5.61829 -7.32961,0.67723 -2.21566,-4.94107 2.98981,-7.19577 2.98981,-7.19577 z"
       style="fill:#0f8b6f;fill-opacity:1;fill-rule:evenodd;stroke:#ffffff;stroke-width:0.26458332px;stroke-linecap:butt;stroke-linejoin:miter;stroke-opacity:1" />
    <path
       inkscape:connector-curvature="0"
       id="path5078-3-5"
       d="m 116.06883,232.63781 c 0,0 2.91731,-3.79257 5.51927,-1.3108 2.60196,2.48176 -0.60571,7.06806 -0.60571,7.06806 0,0 6.97347,8.49073 2.49962,10.63394 -4.47385,2.14321 -9.12025,-3.60632 -9.12025,-3.60632 0,0 -1.93375,6.76223 -5.74953,4.6464 -3.81577,-2.11584 -1.71542,-5.3973 -1.71542,-5.3973 0,0 -7.097213,-4.21621 -3.65333,-7.72615 3.4439,-3.50993 5.64899,-1.17335 5.64899,-1.17335 0,0 -4.63867,-6.01669 0.61344,-7.33523 5.25212,-1.31853 6.56292,4.20075 6.56292,4.20075 z"
       style="fill:#0f8b6f;fill-opacity:1;fill-rule:evenodd;stroke:#ffffff;stroke-width:0.26458332px;stroke-linecap:butt;stroke-linejoin:miter;stroke-opacity:1" />
    <path
       sodipodi:nodetypes="ccscscscscsc"
       inkscape:connector-curvature="0"
       id="path5074-3"
       d="m 75.117633,245.29113 c 4.91369,-6.99256 10.01637,-1.32292 10.01637,-1.32292 0,0 8.12648,-3.40178 13.22916,3.2128 5.102677,6.61458 -0.37797,12.47322 -0.37797,12.47322 0,0 8.315467,5.66964 2.834817,13.22916 -5.480647,7.55953 -9.071427,2.26786 -9.071427,2.26786 0,0 -3.21279,3.96875 -8.50446,3.96875 -5.29167,0 -8.12649,-6.42559 -8.12649,-6.42559 0,0 -7.78258,2.17801 -11.1503,-2.07887 -4.50482,-5.69422 0.22679,-10.96131 0.22679,-10.96131 0,0 -9.09914,-6.39869 -2.68363,-14.17411 4.42582,-5.36398 13.60714,-0.18899 13.60714,-0.18899 z"
       style="fill:#0f8b6f;fill-opacity:1;fill-rule:evenodd;stroke:#ffffff;stroke-width:0.26458332px;stroke-linecap:butt;stroke-linejoin:miter;stroke-opacity:1" />
    <path
       inkscape:connector-curvature="0"
       id="path5078-3-5-5"
       d="m 157.80053,230.95101 c 0,0 0.63031,-4.7431 4.12453,-3.89471 3.49423,0.84838 3.00931,6.42406 3.00931,6.42406 0,0 10.28445,3.86672 7.48149,7.95965 -2.80297,4.09292 -9.70156,1.4367 -9.70156,1.4367 0,0 1.70624,6.82318 -2.65624,6.89859 -4.36248,0.0754 -4.18413,-3.8166 -4.18413,-3.8166 0,0 -8.25448,-0.10295 -7.02683,-4.86456 1.22766,-4.76161 4.30559,-3.84053 4.30559,-3.84053 0,0 -7.02547,-2.89146 -3.13617,-6.6593 3.8893,-3.76784 7.78401,0.3567 7.78401,0.3567 z"
       style="fill:#0f8b6f;fill-opacity:1;fill-rule:evenodd;stroke:#ffffff;stroke-width:0.26458332px;stroke-linecap:butt;stroke-linejoin:miter;stroke-opacity:1" />
  </g>
</svg>
